<svg xmlns="http://www.w3.org/2000/svg" xmlns:xlink="http://www.w3.org/1999/xlink" version="1.1" x="0px" y="0px" viewBox="0 0 512 640" style="enable-background:new 0 0 512 512;" xml:space="preserve"><style type="text/css">
	.st0{fill:#010101;}
</style><path class="st0" d="M257,43.3c-11.9-56-55.1,13.4-130,35.9C49.8,102.5-8.3,48.6,9.6,113.1  C47.5,249,136.3,328.8,197.4,309.2c4.8-1.5,18-4.4,22.5-6.5c3.8-32.1,11.2-66.9,25.4-102.8c11.5-29.1,20.6-27.6,34.8-14.8  C281.6,148.5,269.6,102.8,257,43.3z M95,158.9c-19.1,2.6-33.4,17.9-34,13.9c-0.6-4.1,12.8-25.9,32-28.6c19.1-2.6,36.8,15,37.4,19  C130.9,167.3,114.1,156.3,95,158.9z M187.1,248.7c-23.8,7.4-55-9-57.9-18.3s23.6-4.8,47.5-12.2s45.5-25.9,48.4-16.6  C227.9,210.9,210.9,241.3,187.1,248.7z M206.3,126.1c-17.4,8.3-26.4,27.2-28.2,23.5c-1.8-3.7,4.4-28.6,21.8-36.9s39.6,3.1,41.4,6.8  C243,123.2,223.7,117.8,206.3,126.1z"/><path class="st0" d="M375.6,266.3c-75.6-27.9-89.5-106-114-43.7c-51.7,131.3-28.9,248.5,31.6,269.7  c60.5,21.2,128-5.7,207.8-176.3C525.3,264.1,449,293.4,375.6,266.3z M269.3,294.1c0.9-4,13.9,12.4,32.7,16.7  c18.9,4.2,36.5-5.4,35.6-1.4c-0.9,4-19.9,20.1-38.8,15.9C279.9,321,268.4,298.1,269.3,294.1z M363.4,446.3  c-3.6,9-23.7-11.2-46.8-20.5c-23.1-9.3-49.9-7.1-46.3-16.1c3.6-9,36-22.7,59.2-13.4C352.6,405.5,367,437.2,363.4,446.3z   M444.6,362.2c-2.1,3.5-25.1,13.1-41.8,3.4c-16.7-9.7-20.7-35.1-18.7-38.6c2.1-3.5,9.4,16.1,26.1,25.8  C426.9,362.5,446.6,358.6,444.6,362.2z"/><text x="0" y="527" fill="#000000" font-size="5px" font-weight="bold" font-family="'Helvetica Neue', Helvetica, Arial-Unicode, Arial, Sans-serif">Created by Yuvika Koul</text><text x="0" y="532" fill="#000000" font-size="5px" font-weight="bold" font-family="'Helvetica Neue', Helvetica, Arial-Unicode, Arial, Sans-serif">from the Noun Project</text></svg>