<svg xmlns="http://www.w3.org/2000/svg" xmlns:xlink="http://www.w3.org/1999/xlink" version="1.1" x="0px" y="0px" viewBox="0 0 100 125" enable-background="new 0 0 100 100" xml:space="preserve"><g><path fill="#000000" d="M67.316,12.884c-2.501,0-4.898,0.225-7.122,0.727c-3.332,0.762-6.3,2.137-8.472,4.388   c-0.666,0.675-1.229,1.445-1.722,2.276c-0.753-1.289-1.722-2.406-2.873-3.332c-1.826-1.471-4.05-2.475-6.499-3.124   s-5.132-0.935-7.944-0.935H5v74.233h90V12.884H67.316z M8.462,83.655v-5.487h30.003c2.873,0,5.383,0.666,7.07,1.843   c0.848,0.588,1.497,1.289,1.956,2.129c0.251,0.459,0.441,0.961,0.571,1.514H8.462z M48.261,77.753   c-0.813-0.684-1.739-1.255-2.735-1.688c-2.103-0.935-4.517-1.359-7.062-1.359H8.462V16.345h24.222c2.285,0,4.44,0.208,6.361,0.64   c2.882,0.658,5.201,1.809,6.75,3.418c0.779,0.805,1.384,1.731,1.809,2.821c0.415,1.082,0.658,2.345,0.658,3.834V77.753z    M91.538,83.655h-39.6c0.13-0.554,0.32-1.056,0.571-1.514c0.692-1.255,1.817-2.224,3.366-2.916c1.549-0.684,3.505-1.056,5.66-1.056   h30.003V83.655z M91.538,74.707H61.536c-3.384,0.009-6.56,0.753-9.043,2.458c-0.26,0.182-0.511,0.381-0.762,0.588l0.009-50.694   c0-1.982,0.424-3.565,1.142-4.872c0.545-0.987,1.263-1.817,2.163-2.553c1.35-1.09,3.115-1.921,5.21-2.466   c2.086-0.554,4.491-0.822,7.061-0.822h24.222V74.707z"/><rect x="15.203" y="24.861" fill="#000000" width="25.451" height="3.462"/><rect x="15.203" y="34.466" fill="#000000" width="25.451" height="3.462"/><rect x="15.203" y="44.063" fill="#000000" width="25.451" height="3.462"/><rect x="15.203" y="53.661" fill="#000000" width="25.451" height="3.462"/><rect x="15.203" y="63.258" fill="#000000" width="25.451" height="3.462"/><rect x="58.905" y="24.861" fill="#000000" width="25.451" height="3.462"/><rect x="58.905" y="34.466" fill="#000000" width="25.451" height="3.462"/><rect x="58.905" y="44.063" fill="#000000" width="25.451" height="3.462"/><rect x="58.905" y="53.661" fill="#000000" width="25.451" height="3.462"/><rect x="58.905" y="63.258" fill="#000000" width="25.451" height="3.462"/></g><text x="0" y="115" fill="#000000" font-size="5px" font-weight="bold" font-family="'Helvetica Neue', Helvetica, Arial-Unicode, Arial, Sans-serif">Created by Pumpkin Juice</text><text x="0" y="120" fill="#000000" font-size="5px" font-weight="bold" font-family="'Helvetica Neue', Helvetica, Arial-Unicode, Arial, Sans-serif">from the Noun Project</text></svg>