<svg xmlns:dc="http://purl.org/dc/elements/1.1/" xmlns:cc="http://creativecommons.org/ns#" xmlns:rdf="http://www.w3.org/1999/02/22-rdf-syntax-ns#" xmlns:svg="http://www.w3.org/2000/svg" xmlns="http://www.w3.org/2000/svg" xmlns:sodipodi="http://sodipodi.sourceforge.net/DTD/sodipodi-0.dtd" xmlns:inkscape="http://www.inkscape.org/namespaces/inkscape" viewBox="0 0 100 125" version="1.1" x="0px" y="0px"><g transform="translate(0,-952.36216)"><rect style="opacity:1;fill:none;fill-opacity:1;stroke:#000000;stroke-width:3;stroke-miterlimit:22.9260006;stroke-dasharray:none;stroke-opacity:1" width="22.96829" height="88.999123" x="5.2764888" y="957.56628" rx="2" ry="2.0000002"/><rect style="opacity:1;fill:none;fill-opacity:1;stroke:#000000;stroke-width:3;stroke-miterlimit:22.9260006;stroke-dasharray:none;stroke-opacity:1" width="11.484153" height="8.6128187" x="11.018555" y="969.05005" rx="1" ry="1.0000001"/><rect style="opacity:1;fill:none;fill-opacity:1;stroke:#000000;stroke-width:3;stroke-miterlimit:22.9260006;stroke-dasharray:none;stroke-opacity:1" width="11.484153" height="8.6128187" x="11.018555" y="1026.4689" rx="1" ry="1.0000001"/><rect style="opacity:1;fill:none;fill-opacity:1;stroke:#000000;stroke-width:3;stroke-miterlimit:22.9260006;stroke-dasharray:none;stroke-opacity:1" width="22.96829" height="88.999123" x="33.986816" y="957.56628" rx="2" ry="2.0000002"/><rect style="opacity:1;fill:none;fill-opacity:1;stroke:#000000;stroke-width:3;stroke-miterlimit:22.9260006;stroke-dasharray:none;stroke-opacity:1" width="11.484153" height="8.6128187" x="39.728851" y="969.05005" rx="1" ry="1.0000001"/><rect style="opacity:1;fill:none;fill-opacity:1;stroke:#000000;stroke-width:2.99999999;stroke-miterlimit:22.9260006;stroke-dasharray:none;stroke-opacity:1" width="20.097235" height="77.515442" x="-107.79281" y="967.11328" rx="2" ry="2.0000002" transform="matrix(0.98480874,-0.17364259,0.17365377,0.98480677,0,0)"/><rect style="opacity:1;fill:none;fill-opacity:1;stroke:#000000;stroke-width:2.99999999;stroke-miterlimit:22.9260006;stroke-dasharray:none;stroke-opacity:1" width="8.6131105" height="5.7418838" x="-102.05074" y="978.59705" rx="1" ry="1.0000001" transform="matrix(0.98480874,-0.17364259,0.17365377,0.98480677,0,0)"/><rect style="opacity:1;fill:none;fill-opacity:1;stroke:#000000;stroke-width:2.99999999;stroke-miterlimit:22.9260006;stroke-dasharray:none;stroke-opacity:1" width="8.6130943" height="5.7418838" x="-102.05074" y="1030.274" rx="0.99999988" ry="1.0000001" transform="matrix(0.98480874,-0.17364259,0.17365377,0.98480677,0,0)"/><rect style="opacity:1;fill:none;fill-opacity:1;stroke:#000000;stroke-width:3;stroke-miterlimit:22.9260006;stroke-dasharray:none;stroke-opacity:1" width="11.484153" height="8.6128187" x="39.728851" y="1026.4689" rx="1" ry="1.0000001"/></g><text x="0" y="115" fill="#000000" font-size="5px" font-weight="bold" font-family="'Helvetica Neue', Helvetica, Arial-Unicode, Arial, Sans-serif">Created by Gonzalo Bravo</text><text x="0" y="120" fill="#000000" font-size="5px" font-weight="bold" font-family="'Helvetica Neue', Helvetica, Arial-Unicode, Arial, Sans-serif">from the Noun Project</text></svg>