<svg xmlns:dc="http://purl.org/dc/elements/1.1/" xmlns:cc="http://creativecommons.org/ns#" xmlns:rdf="http://www.w3.org/1999/02/22-rdf-syntax-ns#" xmlns:svg="http://www.w3.org/2000/svg" xmlns="http://www.w3.org/2000/svg" xmlns:sodipodi="http://sodipodi.sourceforge.net/DTD/sodipodi-0.dtd" xmlns:inkscape="http://www.inkscape.org/namespaces/inkscape" version="1.1" x="0px" y="0px" viewBox="0 0 100 125"><g transform="translate(0,-952.36218)"><path style="font-size:medium;font-style:normal;font-variant:normal;font-weight:normal;font-stretch:normal;text-indent:0;text-align:start;text-decoration:none;line-height:normal;letter-spacing:normal;word-spacing:normal;text-transform:none;direction:ltr;block-progression:tb;writing-mode:lr-tb;text-anchor:start;baseline-shift:baseline;opacity:1;color:#000000;fill:#000000;fill-opacity:1;fill-rule:nonzero;stroke:none;stroke-width:4;marker:none;visibility:visible;display:inline;overflow:visible;enable-background:accumulate;font-family:Sans;-inkscape-font-specification:Sans" d="m 91.75,6 c -0.432916,0.054639 -0.846045,0.2556207 -1.15625,0.5625 l -64,64 c -0.768355,0.730732 -0.789348,2.102003 -0.04372,2.855914 0.745626,0.75391 2.117046,0.74807 2.856223,-0.01216 l 19.4375,-19.4375 c 8.306567,-0.063 19.051323,-1.1138 28.125,-5 C 86.335172,44.95706 94,37.49176 94,25.5 L 94,8 C 94.008784,6.8640711 92.877065,5.8580983 91.75,6 z M 7.8125,26 C 6.8293323,26.092661 5.9957419,27.012485 6,28 l 0,64 c 1.047e-4,1.047169 0.9528311,1.999895 2,2 l 64,0 c 1.047169,-1.05e-4 1.999895,-0.952831 2,-2 l 0,-30 c 0.01494,-1.056625 -0.943269,-2.028484 -2,-2.028484 -1.056731,0 -2.014943,0.971859 -2,2.028484 l 0,28 -60,0 0,-60 43,0 c 1.056625,0.01494 2.028484,-0.943269 2.028484,-2 0,-1.056731 -0.971859,-2.014943 -2.028484,-2 L 8,26 c -0.062454,-0.0029 -0.1250458,-0.0029 -0.1875,0 z" transform="translate(0,952.36218)"/></g><text x="0" y="115" fill="#000000" font-size="5px" font-weight="bold" font-family="'Helvetica Neue', Helvetica, Arial-Unicode, Arial, Sans-serif">Created by hans draiman</text><text x="0" y="120" fill="#000000" font-size="5px" font-weight="bold" font-family="'Helvetica Neue', Helvetica, Arial-Unicode, Arial, Sans-serif">from the Noun Project</text></svg>