<svg xmlns="http://www.w3.org/2000/svg" xmlns:xlink="http://www.w3.org/1999/xlink" viewBox="0 0 100 125" version="1.1" x="0px" y="0px"><title>Artboard Copy 63</title><desc>Created with Sketch.</desc><g stroke="none" stroke-width="1" fill="none" fill-rule="evenodd"><g fill="#000000"><path d="M50.1550099,76.4866007 L31.1865267,86.4589225 C27.2737297,88.5160016 24.706928,86.6553162 25.454847,82.2946135 L29.077505,61.172897 L13.7316796,46.2144143 C10.5661604,43.1287956 11.542592,40.1126387 15.9209865,39.4764208 L37.1283955,36.3948039 L46.6126371,17.1776313 C48.5690356,13.213535 51.7393052,13.2101329 53.6973828,17.1776313 L63.1816244,36.3948039 L84.3890334,39.4764208 C88.7636734,40.1120932 89.7465762,43.1261475 86.5783402,46.2144143 L71.2325149,61.172897 L74.8551728,82.2946135 C75.6024505,86.651577 73.0396482,88.5177671 69.1234932,86.4589225 L50.1550099,76.4866007 Z M52.1131763,70.1093301 C51.1356801,69.59543 49.5532412,69.5941706 48.5733495,70.1093301 L35.7641193,76.843541 C33.8113874,77.8701529 32.5323727,76.9300044 32.9036505,74.7652888 L35.3499958,60.5020013 C35.5366809,59.4135433 35.0488781,57.9081653 34.2561291,57.1354259 L23.8932442,47.0341097 C22.3134509,45.4941918 22.812348,43.9872547 24.985846,43.671427 L39.3070008,41.5904414 C40.3998748,41.4316375 41.680835,40.502522 42.1707809,39.5097834 L48.575396,26.5326157 C49.5517619,24.5542822 51.1391119,24.5630924 52.1111298,26.5326157 L58.5157449,39.5097834 C59.004493,40.5000952 60.2839728,41.4312483 61.379525,41.5904414 L75.7006798,43.671427 C77.8839004,43.9886675 78.3660396,45.5010495 76.7932816,47.0341097 L66.4303967,57.1354259 C65.6395856,57.9062762 65.1493874,59.4108759 65.33653,60.5020013 L67.7828753,74.7652888 C68.1558139,76.9396877 66.8664423,77.8655811 64.9224065,76.843541 L52.1131763,70.1093301 Z"/></g></g><text x="0" y="115" fill="#000000" font-size="5px" font-weight="bold" font-family="'Helvetica Neue', Helvetica, Arial-Unicode, Arial, Sans-serif">Created by Kero</text><text x="0" y="120" fill="#000000" font-size="5px" font-weight="bold" font-family="'Helvetica Neue', Helvetica, Arial-Unicode, Arial, Sans-serif">from the Noun Project</text></svg>